<svg xmlns="http://www.w3.org/2000/svg" viewBox="0 0 360.3 59.3">
  <title>Peachy</title>
  <defs></defs><g><polygon class="logo-path" points="337.6 29.6 320.7 0.9 305.1 0.8 325.2 35.2 325.2 58 339.6 58 339.6 36.2 360.3 0.9 354.5 0.8 337.6 29.6"></polygon><path class="logo-path" d="M228.1,36.2c-.2,8.8-8,23.1-24.7,23.1-14.8,0-27.3-9.6-28.2-27.8C174.4,16.3,185,0,203.2,0c15,0,23.8,10.5,23.8,19h-9.5c0-4.9-4.5-13.7-14.4-13.7-9.4,0-16.9,8.4-16.9,21.4,0,11.9,7.8,20.1,18.7,20.1,12.9,0,16.5-10.8,16.5-10.8h6.7Z"></path><polygon class="logo-path" points="280.2 24.4 255.4 24.4 255.4 0.9 241.3 0.9 241.3 58 255.4 58 255.4 30.2 280.2 30.2 280.2 58 294.3 58 294.3 0.9 280.2 0.9 280.2 24.4"></polygon><polygon class="logo-path" points="60 57.9 100.5 57.9 100.5 52.1 74.2 52.1 74.2 30.3 95.2 30.3 95.2 24.5 74.2 24.5 74.2 6.6 100.7 6.6 100.7 0.9 60 0.9 60 57.9"></polygon><path class="logo-path" d="M21.2,30.3H14.1V6.7h5.2C27.9,6.7,33,10.9,33,19.5c0,7.6-4.2,10.8-11.8,10.8M23.8.9H0V58H14.1V36.2H25.7c13.2,0,21.6-6.6,21.6-18.1C47.3,6,38.6.9,23.8.9"></path><path class="logo-path" d="M127.3,36.2l8.2-18.1h1.2l8.2,18.1ZM136.7.9,110.8,58h6.6l7.2-16h22.9l7.2,15.9h14.7L143.5.9Z"></path>
</g></svg>